<svg xmlns="http://www.w3.org/2000/svg" fill="none" style="width:100%;max-width:177px" viewBox="0 0 177 24"
  alt="Equilibrium logo">
  <path fill="currentColor" fill-rule="evenodd" d="M0 0h23.852v14.311H0V0Zm4.77 9.54h14.311V4.77H4.771v4.77Z"
    clip-rule="evenodd"></path>
  <path fill="currentColor"
    d="M23.852 19.081H0v4.77h23.852v-4.77ZM37 12.028c0-1.439.297-2.716.89-3.833.613-1.117 1.455-1.979 2.527-2.585 1.091-.624 2.326-.937 3.704-.937 1.36 0 2.556.294 3.59.88a6.105 6.105 0 0 1 2.411 2.5c.575 1.079.862 2.328.862 3.748v1.278h-10.74c.058 1.08.46 1.97 1.207 2.67.765.7 1.713 1.05 2.842 1.05.977 0 1.752-.217 2.326-.653.594-.435 1.063-1.013 1.407-1.732l2.613 1.391a8.09 8.09 0 0 1-2.354 2.613c-.977.72-2.326 1.08-4.049 1.08-1.417 0-2.68-.313-3.79-.938a6.816 6.816 0 0 1-2.556-2.641c-.593-1.136-.89-2.433-.89-3.89Zm10.768-1.363c-.096-1.003-.47-1.798-1.12-2.385-.65-.606-1.503-.909-2.556-.909-1.072 0-1.943.303-2.613.909-.67.587-1.072 1.382-1.206 2.385h7.495ZM64.219 17.112h-.287c-1.053 1.59-2.67 2.385-4.853 2.385a6.126 6.126 0 0 1-3.245-.909c-.976-.605-1.76-1.467-2.354-2.584-.594-1.136-.89-2.442-.89-3.919 0-1.477.296-2.773.89-3.89.593-1.117 1.378-1.979 2.354-2.585a6.127 6.127 0 0 1 3.245-.908c2.182 0 3.819.814 4.91 2.442h.287V5.099h3.101V24H64.22v-6.888Zm-4.221-.313c1.263 0 2.287-.416 3.072-1.25.804-.851 1.206-2.006 1.206-3.464 0-1.458-.402-2.603-1.206-3.436-.785-.852-1.809-1.278-3.072-1.278-1.264 0-2.288.426-3.073 1.278-.784.833-1.177 1.978-1.177 3.436s.393 2.613 1.177 3.465c.785.833 1.81 1.25 3.073 1.25ZM80.302 16.913h-.287c-.804 1.61-2.335 2.414-4.594 2.414-1.072 0-2.03-.237-2.872-.71a5.248 5.248 0 0 1-1.98-2.045c-.46-.89-.69-1.912-.69-3.067V5.1h3.158v8.236c0 1.136.288 1.997.862 2.584.574.568 1.397.852 2.47.852 1.186 0 2.124-.388 2.813-1.164.709-.795 1.063-1.903 1.063-3.323V5.099h3.13v14h-3.073v-2.186ZM89.77 19.1h-3.13v-14h3.13v14ZM96.185 19.1h-3.13V0h3.13v19.1ZM102.6 19.1h-3.13v-14h3.13v14ZM109.015 7.059h.287c1.053-1.572 2.67-2.357 4.853-2.357 1.167 0 2.239.302 3.215.908.996.606 1.79 1.468 2.384 2.585.593 1.117.89 2.413.89 3.89 0 1.477-.297 2.783-.89 3.92-.594 1.116-1.388 1.978-2.384 2.584a5.978 5.978 0 0 1-3.215.908c-2.183 0-3.819-.823-4.911-2.47h-.287V19.1h-3.072V0h3.13v7.059Zm4.221.312c-1.245 0-2.269.426-3.073 1.278-.785.852-1.177 1.997-1.177 3.436 0 1.44.392 2.584 1.177 3.436.804.852 1.828 1.278 3.073 1.278 1.263 0 2.287-.416 3.072-1.25.785-.851 1.177-2.006 1.177-3.464 0-1.458-.392-2.603-1.177-3.436-.785-.852-1.809-1.278-3.072-1.278ZM126.399 7.03c.287-.7.718-1.202 1.292-1.505.574-.322 1.33-.483 2.268-.483h1.637v2.641h-2.182c-.996 0-1.79.265-2.383.796-.575.53-.862 1.306-.862 2.328V19.1h-3.13v-14h3.073v1.93h.287ZM136.538 19.1h-3.13v-14h3.13v14ZM150.246 16.913h-.288c-.803 1.61-2.335 2.414-4.594 2.414-1.072 0-2.029-.237-2.871-.71a5.245 5.245 0 0 1-1.981-2.045c-.46-.89-.69-1.912-.69-3.067V5.1h3.159v8.236c0 1.136.287 1.997.861 2.584.575.568 1.398.852 2.47.852 1.187 0 2.125-.388 2.814-1.164.708-.795 1.062-1.903 1.062-3.323V5.099h3.13v14h-3.072v-2.186ZM159.657 6.86h.287c.708-1.344 1.991-2.016 3.848-2.016 1.933 0 3.263.776 3.991 2.328h.287c.402-.738.928-1.306 1.579-1.704.651-.416 1.512-.624 2.584-.624 1.398 0 2.537.435 3.417 1.306.9.852 1.35 2.063 1.35 3.635V19.1h-3.159V9.955c0-.814-.229-1.439-.689-1.874-.459-.454-1.091-.682-1.895-.682-.9 0-1.608.284-2.125.852-.517.568-.775 1.382-.775 2.443V19.1h-3.158V9.955c0-.814-.23-1.439-.69-1.874-.44-.454-1.072-.682-1.895-.682-.899 0-1.608.284-2.125.852-.516.568-.775 1.382-.775 2.443V19.1h-3.13v-14h3.073v1.76ZM86.678.053h3.094V2.79h-3.094V.053ZM99.433.053h3.094V2.79h-3.094V.053ZM133.446.053h3.094V2.79h-3.094V.053Z">
  </path>
</svg>
