<?xml version="1.0" encoding="utf-8"?>
<!-- Generator: Adobe Illustrator 16.0.0, SVG Export Plug-In . SVG Version: 6.00 Build 0)  -->
<!DOCTYPE svg PUBLIC "-//W3C//DTD SVG 1.1//EN" "http://www.w3.org/Graphics/SVG/1.1/DTD/svg11.dtd">
<svg version="1.1" id="Layer_1" xmlns="http://www.w3.org/2000/svg" xmlns:xlink="http://www.w3.org/1999/xlink" x="0px" y="0px"
	 width="509.271px" height="283.46px" viewBox="0 0 509.271 283.46" enable-background="new 0 0 509.271 283.46"
	 xml:space="preserve">
<g>
	<defs>
		<rect id="SVGID_1_" x="11.377" y="81.561" width="484.724" height="120.439"/>
	</defs>
	<clipPath id="SVGID_2_">
		<use xlink:href="#SVGID_1_"  overflow="visible"/>
	</clipPath>
	<path clip-path="url(#SVGID_2_)" fill="#003399" d="M76.077,185.923c-1.178,0.755-3.389,1.201-4.645,1.717
		c-1.222,0.515-2.025,1.614-2.478,2.988c-0.471,1.546-0.121,2.781,1.425,2.781c2.232,0,3.852-1.683,4.721-4.396L76.077,185.923z
		 M77.723,191.829c-0.209,0.688,0,1.306,0.55,1.306c0.24,0,0.485-0.035,0.629-0.104l-0.768,2.404
		c-0.503,0.206-1.214,0.447-1.936,0.447c-1.648,0-2.816-0.653-2.354-2.439h-0.069c-1.565,1.821-3.307,2.714-5.471,2.714
		c-2.954,0-4.291-1.647-3.164-5.186c1.327-4.122,3.375-4.98,6.14-5.806l3.139-0.789c1.448-0.379,2.415-0.756,2.928-2.37
		c0.521-1.684,0.289-2.747-1.669-2.747c-2.472,0-3.378,1.752-3.943,3.537h-3.504c1.237-3.915,3.525-6.078,8.401-6.078
		c3.263,0,5.465,1.27,4.436,4.533L77.723,191.829z"/>
	<path clip-path="url(#SVGID_2_)" fill="#003399" d="M103.102,192.826h-0.069c-1.784,2.267-3.544,3.33-6.43,3.33
		c-5.357,0-6.003-3.983-3.228-12.741s6.526-12.741,12.192-12.741c6.148,0,5.639,4.842,4.923,7.075l-0.149,0.446h-3.71l0.199-0.584
		c0.569-1.82,0.488-3.983-2.192-3.983c-2.781,0-4.831,1.854-7.302,9.685c-2.514,7.899-1.864,9.892,0.78,9.892
		c2.985,0.033,4.758-2.13,6.488-7.487h-4.121l0.928-2.954h7.831l-4.104,12.914h-2.954L103.102,192.826z"/>
	<path clip-path="url(#SVGID_2_)" fill="#003399" d="M114.771,177.199h3.709l-0.921,2.884h0.068c1.488-2.06,3.273-3.365,5.369-3.365
		c0.411,0,0.645,0.069,0.844,0.138l-1.187,3.778c-0.233-0.068-0.871-0.207-1.49-0.207c-1.683,0-3.925,0.756-5.042,4.191
		l-3.498,11.058h-3.709L114.771,177.199z"/>
</g>
<path fill="#003399" d="M128.416,170.88h3.71l-1.146,3.709h-3.709L128.416,170.88z M126.413,177.199h3.709l-5.857,18.477h-3.709
	L126.413,177.199z"/>
<g>
	<defs>
		<rect id="SVGID_3_" x="11.377" y="81.561" width="484.724" height="120.439"/>
	</defs>
	<clipPath id="SVGID_4_">
		<use xlink:href="#SVGID_3_"  overflow="visible"/>
	</clipPath>
	<path clip-path="url(#SVGID_4_)" fill="#003399" d="M134.689,177.199h3.503l-0.674,2.164h0.103
		c1.444-1.649,3.506-2.646,5.258-2.646c2.644,0,3.335,1.271,3.413,2.816c1.631-1.785,3.318-2.816,5.551-2.816
		c2.61,0,4.084,1.339,2.953,4.911l-4.464,14.047h-3.709l4.012-12.673c0.767-2.404,0.35-3.331-1.162-3.331
		c-1.511,0-3.321,1.202-4.088,3.606l-3.948,12.397h-3.709l4.011-12.673c0.767-2.404,0.35-3.331-1.195-3.331
		c-1.477,0-3.287,1.202-4.054,3.606l-3.948,12.397h-3.709L134.689,177.199z"/>
	<path clip-path="url(#SVGID_4_)" fill="#003399" d="M166.432,185.923c-1.179,0.755-3.39,1.201-4.646,1.717
		c-1.222,0.515-2.024,1.614-2.478,2.988c-0.472,1.546-0.121,2.781,1.425,2.781c2.231,0,3.852-1.683,4.721-4.396L166.432,185.923z
		 M168.078,191.829c-0.209,0.688,0,1.306,0.55,1.306c0.24,0,0.485-0.035,0.629-0.104l-0.768,2.404
		c-0.503,0.206-1.214,0.447-1.936,0.447c-1.648,0-2.816-0.653-2.354-2.439h-0.069c-1.564,1.821-3.307,2.714-5.471,2.714
		c-2.954,0-4.291-1.647-3.164-5.186c1.327-4.122,3.375-4.98,6.14-5.806l3.14-0.789c1.448-0.379,2.416-0.756,2.928-2.37
		c0.521-1.684,0.289-2.747-1.669-2.747c-2.472,0-3.378,1.752-3.943,3.537h-3.504c1.237-3.915,3.525-6.078,8.401-6.078
		c3.263,0,5.465,1.27,4.436,4.533L168.078,191.829z"/>
</g>
<polygon fill="#003399" points="179.249,171.154 182.958,171.154 175.16,195.677 171.451,195.677 "/>
<g>
	<defs>
		<rect id="SVGID_5_" x="11.377" y="81.561" width="484.724" height="120.439"/>
	</defs>
	<clipPath id="SVGID_6_">
		<use xlink:href="#SVGID_5_"  overflow="visible"/>
	</clipPath>
	<path clip-path="url(#SVGID_6_)" fill="#003399" d="M190.716,179.672c-2.129,0-3.442,1.717-4.998,6.697
		c-1.333,4.189-1.645,6.835,0.932,6.835c2.542,0,3.948-2.611,5.223-6.561C193.265,182.213,193.568,179.672,190.716,179.672
		 M189.718,193.41h-0.068c-0.848,1.201-2.281,2.746-4.926,2.746c-4.327,0-4.91-3.605-2.868-9.96c2.58-8.208,5.873-9.478,8.69-9.478
		c1.991,0,3.192,0.995,3.362,2.644h0.068l2.613-8.208h3.71l-7.798,24.522H189L189.718,193.41z"/>
</g>
<path fill="#003399" d="M204.758,170.88h3.709l-1.145,3.709h-3.709L204.758,170.88z M202.755,177.199h3.709l-5.856,18.477h-3.709
	L202.755,177.199z"/>
<g>
	<defs>
		<rect id="SVGID_7_" x="11.377" y="81.561" width="484.724" height="120.439"/>
	</defs>
	<clipPath id="SVGID_8_">
		<use xlink:href="#SVGID_7_"  overflow="visible"/>
	</clipPath>
	<path clip-path="url(#SVGID_8_)" fill="#003399" d="M227.178,192.826h-0.068c-1.785,2.267-3.545,3.33-6.43,3.33
		c-5.357,0-6.004-3.983-3.229-12.741c2.774-8.758,6.524-12.741,12.191-12.741c6.147,0,5.639,4.842,4.924,7.075l-0.149,0.446h-3.71
		l0.198-0.584c0.569-1.82,0.487-3.983-2.19-3.983c-2.782,0-4.832,1.854-7.304,9.685c-2.514,7.899-1.863,9.892,0.781,9.892
		c2.984,0.033,4.758-2.13,6.487-7.487h-4.121l0.929-2.954h7.831l-4.105,12.914h-2.954L227.178,192.826z"/>
	<path clip-path="url(#SVGID_8_)" fill="#003399" d="M238.848,177.199h3.709l-0.921,2.884h0.067c1.488-2.06,3.274-3.365,5.369-3.365
		c0.412,0,0.646,0.069,0.844,0.138l-1.187,3.778c-0.234-0.068-0.872-0.207-1.49-0.207c-1.683,0-3.925,0.756-5.043,4.191
		l-3.497,11.058h-3.71L238.848,177.199z"/>
	<path clip-path="url(#SVGID_8_)" fill="#003399" d="M251.329,193.409c2.712,0,3.912-2.267,5.401-6.971
		c1.289-4.087,1.73-6.974-0.983-6.974c-2.68,0-4.08,2.887-5.37,6.974C248.887,191.143,248.649,193.409,251.329,193.409
		 M256.62,176.719c5.392,0,5.661,3.983,3.82,9.72c-1.805,5.734-4.833,9.719-9.984,9.719c-5.118,0-5.592-3.984-3.787-9.719
		C248.508,180.702,251.261,176.719,256.62,176.719"/>
	<path clip-path="url(#SVGID_8_)" fill="#003399" d="M271.132,193.512h-0.103c-1.445,1.649-3.507,2.646-5.567,2.646
		c-2.747,0-4.193-1.271-2.695-6.045l4.104-12.913h3.708l-4.208,13.257c-0.63,2.062,0.054,2.747,1.634,2.747s3.371-1.03,3.999-3.091
		l4.105-12.913h3.71l-5.858,18.477h-3.503L271.132,193.512z"/>
	<path clip-path="url(#SVGID_8_)" fill="#003399" d="M285.624,193.203c2.13,0,3.601-1.58,5.237-6.697
		c1.333-4.189,1.611-6.834-0.964-6.834c-2.542,0-3.95,2.61-5.224,6.561C283.281,190.662,283.014,193.203,285.624,193.203
		 M284.042,177.199h3.503l-0.719,2.267h0.069c1.306-1.648,3.002-2.748,5.028-2.748c4.225,0,4.807,3.606,2.8,9.96
		c-2.466,7.763-6.183,9.479-8.725,9.479c-1.992,0-3.192-0.996-3.362-2.646h-0.068l-2.58,8.208h-3.709L284.042,177.199z"/>
	<path clip-path="url(#SVGID_8_)" fill="#003399" d="M318.868,188.945c-1.667,4.43-4.054,7.212-8.622,7.212
		c-5.357,0-5.592-3.984-3.787-9.719c1.841-5.736,4.595-9.721,9.951-9.721c5.572-0.067,5.006,4.328,4.249,6.628h-3.709
		c0.559-1.717,0.793-3.948-1.413-3.88c-2.678,0-4.08,2.885-5.369,6.973c-1.287,4.086-1.728,6.972,0.951,6.972
		c2.057,0.034,3.336-1.685,4.247-4.465H318.868z"/>
	<path clip-path="url(#SVGID_8_)" fill="#003399" d="M327.019,193.409c2.712,0,3.912-2.267,5.402-6.971
		c1.289-4.087,1.729-6.974-0.984-6.974c-2.679,0-4.08,2.887-5.369,6.974C324.579,191.143,324.34,193.409,327.019,193.409
		 M332.31,176.719c5.393,0,5.661,3.983,3.821,9.72c-1.805,5.734-4.833,9.719-9.985,9.719c-5.118,0-5.592-3.984-3.787-9.719
		C324.2,180.702,326.953,176.719,332.31,176.719"/>
	<path clip-path="url(#SVGID_8_)" fill="#003399" d="M342.734,177.199h3.503l-0.674,2.164h0.104
		c1.443-1.649,3.507-2.646,5.259-2.646c2.644,0,3.334,1.271,3.412,2.816c1.63-1.785,3.318-2.816,5.552-2.816
		c2.61,0,4.083,1.339,2.952,4.911l-4.465,14.047h-3.71l4.013-12.673c0.767-2.404,0.35-3.331-1.162-3.331
		c-1.511,0-3.321,1.202-4.088,3.606l-3.948,12.397h-3.709l4.011-12.673c0.768-2.404,0.351-3.331-1.194-3.331
		c-1.478,0-3.286,1.202-4.055,3.606l-3.948,12.397h-3.709L342.734,177.199z"/>
	<path clip-path="url(#SVGID_8_)" fill="#003399" d="M370.209,193.203c2.129,0,3.6-1.58,5.237-6.697
		c1.333-4.189,1.61-6.834-0.965-6.834c-2.542,0-3.949,2.61-5.223,6.561C367.867,190.662,367.599,193.203,370.209,193.203
		 M368.628,177.199h3.503l-0.719,2.267h0.068c1.307-1.648,3.002-2.748,5.029-2.748c4.224,0,4.806,3.606,2.799,9.96
		c-2.465,7.763-6.183,9.479-8.724,9.479c-1.992,0-3.193-0.996-3.363-2.646h-0.069l-2.578,8.208h-3.709L368.628,177.199z"/>
	<path clip-path="url(#SVGID_8_)" fill="#003399" d="M391.649,185.923c-1.179,0.755-3.389,1.201-4.646,1.717
		c-1.223,0.515-2.024,1.614-2.479,2.988c-0.471,1.546-0.12,2.781,1.426,2.781c2.232,0,3.852-1.683,4.721-4.396L391.649,185.923z
		 M393.294,191.829c-0.21,0.688,0,1.306,0.551,1.306c0.24,0,0.483-0.035,0.629-0.104l-0.769,2.404
		c-0.503,0.206-1.214,0.447-1.936,0.447c-1.648,0-2.816-0.653-2.354-2.439h-0.068c-1.565,1.821-3.308,2.714-5.472,2.714
		c-2.954,0-4.292-1.647-3.164-5.186c1.326-4.122,3.374-4.98,6.141-5.806l3.139-0.789c1.448-0.379,2.415-0.756,2.928-2.37
		c0.521-1.684,0.289-2.747-1.67-2.747c-2.471,0-3.377,1.752-3.941,3.537h-3.504c1.235-3.915,3.524-6.078,8.4-6.078
		c3.264,0,5.465,1.27,4.436,4.533L393.294,191.829z"/>
	<path clip-path="url(#SVGID_8_)" fill="#003399" d="M402.353,177.199h3.503l-0.674,2.164h0.103
		c1.445-1.649,3.508-2.646,5.567-2.646c2.817,0,4.194,1.271,3.011,5.015l-4.42,13.943h-3.709l4.013-12.673
		c0.767-2.404,0.35-3.331-1.506-3.331c-1.511,0-3.32,1.202-4.088,3.606l-3.947,12.397h-3.71L402.353,177.199z"/>
	<path clip-path="url(#SVGID_8_)" fill="#003399" d="M421.998,177.199l-1.218,13.876h0.068l7.365-13.876h3.881l-11.149,19.164
		c-3.037,5.048-4.48,5.701-8.25,5.632c-0.481,0-0.989-0.068-1.429-0.137l0.929-2.953c0.404,0.068,0.74,0.137,1.153,0.137
		c1.271,0,2.192-0.275,2.968-1.442l0.948-1.512l0.749-18.889H421.998z"/>
</g>
<polygon fill="#003399" points="90.578,160.652 101.976,127.223 126.778,127.223 132.17,111.404 107.367,111.404 112.148,97.379 
	139.106,97.379 144.498,81.561 97.61,81.561 70.644,160.652 "/>
<path fill="#003399" d="M163.428,95.798l4.854-14.237h-18.01l-4.85,14.237H163.428z M141.312,160.652l20.137-59.057h-18.005
	l-20.138,59.057H141.312z"/>
<g>
	<defs>
		<rect id="SVGID_9_" x="11.377" y="81.561" width="484.724" height="120.439"/>
	</defs>
	<clipPath id="SVGID_10_">
		<use xlink:href="#SVGID_9_"  overflow="visible"/>
	</clipPath>
	<path clip-path="url(#SVGID_10_)" fill="#003399" d="M173.125,101.597l-20.138,59.056h18.005l14.386-42.183
		c1.046-3.057,3.315-4.744,6.524-4.851c3.469-0.211,3.812,2.108,3.104,4.851l-14.385,42.183h18.01l16.503-48.405
		c2.732-8.013-3.38-12.336-11.874-12.336c-5.665,0-12.42,4.534-15.662,9.067h-0.231l2.521-7.382H173.125z"/>
	<path clip-path="url(#SVGID_10_)" fill="#003399" d="M229.796,101.597l-20.137,59.056h18.005l14.385-42.183
		c1.042-3.057,3.316-4.744,6.525-4.851c3.468-0.211,3.81,2.108,3.104,4.851l-14.387,42.183h18.012l16.503-48.405
		c2.732-8.013-3.382-12.336-11.874-12.336c-5.664,0-12.42,4.534-15.667,9.067h-0.226l2.52-7.382H229.796z"/>
</g>
<polygon fill="#003399" points="284.425,160.652 311.392,81.561 293.386,81.561 266.415,160.652 "/>
<path fill="#003399" d="M335.709,95.798l4.854-14.237h-18.01l-4.851,14.237H335.709z M313.597,160.652l20.138-59.057h-18.011
	l-20.137,59.057H313.597z"/>
<g>
	<defs>
		<rect id="SVGID_11_" x="11.377" y="81.561" width="484.724" height="120.439"/>
	</defs>
	<clipPath id="SVGID_12_">
		<use xlink:href="#SVGID_11_"  overflow="visible"/>
	</clipPath>
	<path clip-path="url(#SVGID_12_)" fill="#003399" d="M345.988,101.597l-20.132,59.056h18.006l14.38-42.183
		c1.047-3.057,3.32-4.744,6.525-4.851c3.472-0.211,3.814,2.108,3.102,4.851l-14.38,42.183h18.005l16.509-48.405
		c2.732-8.013-3.386-12.336-11.875-12.336c-5.664,0-12.419,4.534-15.665,9.067h-0.228l2.516-7.382H345.988z"/>
	<path clip-path="url(#SVGID_12_)" fill="#003399" d="M437.734,132.697l5.756-16.873c4.347-12.76-5.808-17.189-18.412-17.082
		c-13.969,0.105-25.965,5.061-31.143,20.245l-8.199,24.045c-4.601,13.497,5.032,18.454,17.979,18.349
		c15.703-0.211,26.912-7.17,31.185-22.355h-17.896c-2.03,4.955-3.255,10.545-9.831,10.229c-3.893-0.21-4.544-2.952-3.43-6.222
		l3.524-10.335H437.734z M411.043,121.626l1.332-3.903c1.4-4.113,3.939-7.909,9.04-7.909c4.642,0,4.78,3.903,4.064,6.011
		l-1.979,5.802H411.043z"/>
	<path clip-path="url(#SVGID_12_)" fill="#003399" d="M494.576,117.934c5.143-13.077-3.306-19.192-16.442-19.192
		c-12.572,0-25.316,5.484-29.669,18.244c-1.474,4.323-1.188,7.803,0.76,11.072c3.611,6.011,12.827,8.543,18.853,12.126
		c1.113,1.055,1.442,2.743,0.832,4.536c-1.296,3.797-4.509,5.589-8.361,5.589c-5.438,0-5.063-4.747-3.435-8.857h-17.216
		c-5.535,14.235,2.492,19.93,16.763,19.93c13.253,0,25.917-5.589,30.411-18.771c4.782-14.025-6.82-16.871-16.794-21.828
		c-2.288-1.267-4.577-2.848-3.501-6.011c1.188-3.48,4.181-4.957,7.695-4.957c5.775,0,4.144,4.114,3.231,8.12H494.576z"/>
</g>
<polygon fill="#003399" points="11.377,101.812 23.354,115.28 78.837,115.28 83.6,101.812 "/>
<polygon fill="#003399" points="28.514,121.383 76.895,121.383 72.34,134.731 52.813,134.731 60.059,142.88 66.917,150.394 
	63.416,160.826 "/>
<line stroke="#FFFFFF" x1="436.383" y1="190.952" x2="470.48" y2="190.952"/>
<line stroke="#FFFFFF" x1="439.897" y1="180.558" x2="473.996" y2="180.558"/>
<line fill="#003399" stroke="#003399" stroke-width="2" x1="439.711" y1="180.334" x2="473.878" y2="180.334"/>
<line fill="#003399" stroke="#003399" stroke-width="2" x1="436.211" y1="190.501" x2="470.378" y2="190.501"/>
</svg>
