<svg width="204" height="46" viewBox="0 0 204 46" fill="none" xmlns="http://www.w3.org/2000/svg">
<g clip-path="url(#clip0_23_2446)">
<path d="M51.3161 6.70271C52.8055 8.17534 54.277 9.63033 55.8127 11.1488C51.3304 15.1625 46.7279 20.3776 42.3155 24.805C47.544 23.5417 55.7953 20.5889 61.2251 19.0956C61.7822 21.1014 62.3323 23.0755 62.8931 25.0885C56.6112 26.7712 50.1518 29.0565 43.9549 31.0345C46.2187 31.7498 60.4211 36.2577 62.6739 36.9532C62.2453 38.6413 61.8024 40.3223 61.3631 42.0067C61.3488 42.0562 61.306 42.1021 61.2595 42.1728C54.865 40.5411 48.5031 38.7795 42.1012 37.1792C34.6789 35.3208 26.939 35.6438 19.5641 37.5924C13.5121 39.1947 7.78112 40.5249 1.74388 42.1811C1.17956 40.1681 0.775928 38.3944 0.21875 36.4097C0.895553 36.1864 1.43438 35.9822 18.6247 31.1264C12.3244 29.4806 6.50843 27.8333 0.21875 26.1911C0.824944 24.1818 1.419 22.3545 1.92974 20.3522C5.09345 21.1679 20.1355 24.9092 20.1605 24.7732C15.3779 20.5757 10.9982 15.8477 6.49963 11.3491C7.90686 9.98593 9.5706 8.32366 10.9886 6.92167C15.3862 11.0213 20.9067 16.2213 24.8429 20.1576C23.1297 14.1365 21.4218 7.20215 19.8784 1.64919C21.9213 1.09476 23.9322 0.547377 25.9502 0C27.6718 6.21185 29.3933 12.4096 31.1434 18.7168C32.6632 13.4097 34.6332 6.01377 36.2758 0.296643C37.6223 0.584402 40.2653 1.35392 42.3619 1.89287C40.9089 7.35077 39.1648 14.3502 37.6331 20.1894C41.9995 15.5378 46.6808 11.0807 51.3304 6.71331L51.3161 6.70271Z" fill="black"/>
<path d="M40.2138 45.9301C38.3994 46.0078 36.9458 44.4646 36.9601 42.6847C36.9743 40.9472 38.3566 39.5028 40.2138 39.4922C42.0175 39.4816 43.539 40.926 43.4926 42.8366C43.4497 44.4928 41.9961 46.0325 40.2138 45.9301Z" fill="black"/>
<path d="M26.6808 42.7271C26.7808 44.4011 25.2878 46.0397 23.2663 45.9443C21.6555 45.8666 20.1518 44.4999 20.1661 42.7201C20.1804 40.8979 21.5877 39.5136 23.4235 39.4853C25.2057 39.457 26.7808 40.9473 26.6773 42.7271H26.6808Z" fill="black"/>
</g>
<g clip-path="url(#clip1_23_2446)">
<path d="M83.6338 9.18359H87.0029V14.8165H93.316V9.18359H96.6957V23.6378H93.316V17.803H87.0029V23.6378H83.6338V9.18359Z" fill="black"/>
<path d="M99.6621 9.18359H109.855V12.1701H103.031V14.9015H108.887V17.7073H103.031V20.6407H109.95V23.6378H99.6621V9.18359Z" fill="black"/>
<path d="M117.91 9.18359C119.44 9.18359 120.79 9.48472 121.959 10.087C123.135 10.6892 124.046 11.5359 124.691 12.6271C125.335 13.7183 125.658 14.9759 125.658 16.4001C125.658 17.8313 125.335 19.0961 124.691 20.1943C124.053 21.2854 123.149 22.1321 121.98 22.7344C120.818 23.3367 119.472 23.6378 117.942 23.6378H112.054V9.18359H117.91ZM117.825 20.6513C118.753 20.6513 119.55 20.4848 120.216 20.1518C120.882 19.8117 121.389 19.3263 121.736 18.6957C122.09 18.0652 122.267 17.3141 122.267 16.4426C122.267 15.5782 122.097 14.8271 121.757 14.1894C121.417 13.5447 120.91 13.0487 120.237 12.7015C119.571 12.3472 118.764 12.1701 117.814 12.1701H115.38V20.6513H117.825Z" fill="black"/>
<path d="M134.447 23.9673C133.065 23.9673 131.786 23.6272 130.61 22.947C129.434 22.2668 128.499 21.3493 127.805 20.1943C127.117 19.0323 126.773 17.764 126.773 16.3895C126.773 15.0078 127.121 13.7395 127.815 12.5846C128.51 11.4297 129.448 10.5157 130.632 9.84256C131.822 9.16237 133.119 8.82227 134.521 8.82227C135.563 8.82227 136.601 9.03483 137.636 9.45995C138.67 9.88508 139.559 10.505 140.303 11.3199C141.047 12.1276 141.515 13.0735 141.706 14.1576H138.284C137.929 13.4419 137.419 12.8893 136.753 12.4996C136.087 12.1028 135.311 11.9044 134.426 11.9044C133.639 11.9044 132.92 12.0886 132.268 12.4571C131.616 12.8184 131.099 13.3392 130.717 14.0194C130.334 14.6996 130.143 15.4932 130.143 16.4001C130.143 17.3283 130.334 18.1325 130.717 18.8127C131.099 19.4858 131.613 19.9995 132.258 20.3538C132.909 20.708 133.632 20.8852 134.426 20.8852C135.396 20.8852 136.211 20.6655 136.87 20.2262C137.529 19.7869 137.961 19.174 138.167 18.3876H134.298V15.6986H141.908C141.922 17.385 141.635 18.8516 141.047 20.0987C140.466 21.3386 139.612 22.2951 138.486 22.9683C137.359 23.6343 136.013 23.9673 134.447 23.9673Z" fill="black"/>
<path d="M143.938 9.18359H154.13V12.1701H147.307V14.9015H153.163V17.7073H147.307V20.6407H154.225V23.6378H143.938V9.18359Z" fill="black"/>
<path d="M156.331 9.18359H159.7V14.8165H166.013V9.18359H169.393V23.6378H166.013V17.803H159.7V23.6378H156.331V9.18359Z" fill="black"/>
<path d="M179.298 23.9673C177.874 23.9673 176.56 23.6307 175.355 22.9576C174.151 22.2774 173.194 21.3563 172.486 20.1943C171.784 19.0323 171.434 17.764 171.434 16.3895C171.434 15.0078 171.784 13.7395 172.486 12.5846C173.194 11.4297 174.151 10.5157 175.355 9.84256C176.56 9.16237 177.874 8.82227 179.298 8.82227C180.715 8.82227 182.026 9.16237 183.231 9.84256C184.435 10.5157 185.388 11.4297 186.09 12.5846C186.798 13.7395 187.152 15.0078 187.152 16.3895C187.152 17.764 186.798 19.0323 186.09 20.1943C185.388 21.3563 184.435 22.2774 183.231 22.9576C182.026 23.6307 180.715 23.9673 179.298 23.9673ZM179.298 20.8852C180.127 20.8852 180.882 20.6939 181.562 20.3112C182.249 19.9215 182.791 19.3866 183.188 18.7064C183.592 18.0191 183.794 17.2504 183.794 16.4001C183.794 15.5428 183.592 14.774 183.188 14.0938C182.791 13.4065 182.249 12.8716 181.562 12.489C180.882 12.0993 180.127 11.9044 179.298 11.9044C178.469 11.9044 177.711 12.0993 177.024 12.489C176.337 12.8716 175.795 13.4065 175.398 14.0938C175.001 14.774 174.803 15.5428 174.803 16.4001C174.803 17.2504 175.001 18.0191 175.398 18.7064C175.802 19.3866 176.347 19.9215 177.035 20.3112C177.722 20.6939 178.476 20.8852 179.298 20.8852Z" fill="black"/>
<path d="M195.941 23.9673C194.559 23.9673 193.28 23.6272 192.104 22.947C190.928 22.2668 189.993 21.3493 189.298 20.1943C188.611 19.0323 188.268 17.764 188.268 16.3895C188.268 15.0078 188.615 13.7395 189.309 12.5846C190.003 11.4297 190.942 10.5157 192.125 9.84256C193.316 9.16237 194.612 8.82227 196.015 8.82227C197.057 8.82227 198.095 9.03483 199.129 9.45995C200.164 9.88508 201.053 10.505 201.797 11.3199C202.541 12.1276 203.009 13.0735 203.2 14.1576H199.778C199.424 13.4419 198.913 12.8893 198.247 12.4996C197.581 12.1028 196.805 11.9044 195.92 11.9044C195.133 11.9044 194.414 12.0886 193.762 12.4571C193.11 12.8184 192.593 13.3392 192.211 14.0194C191.828 14.6996 191.637 15.4932 191.637 16.4001C191.637 17.3283 191.828 18.1325 192.211 18.8127C192.593 19.4858 193.107 19.9995 193.752 20.3538C194.403 20.708 195.126 20.8852 195.92 20.8852C196.891 20.8852 197.705 20.6655 198.364 20.2262C199.023 19.7869 199.455 19.174 199.661 18.3876H195.792V15.6986H203.402C203.416 17.385 203.129 18.8516 202.541 20.0987C201.96 21.3386 201.106 22.2951 199.98 22.9683C198.853 23.6343 197.507 23.9673 195.941 23.9673Z" fill="black"/>
<path d="M86.4553 28.9097C87.0103 28.9097 87.5063 29.0297 87.9432 29.2698C88.3841 29.506 88.7285 29.8367 88.9765 30.2618C89.2245 30.683 89.3485 31.1593 89.3485 31.6906C89.3485 32.2575 89.2265 32.7573 88.9824 33.1904C88.7384 33.6235 88.3979 33.9599 87.9609 34.2C87.5279 34.4362 87.0339 34.5544 86.4789 34.5544H84.8493V36.9397H82.9775V28.9097H86.4553ZM86.3785 32.8952C86.5793 32.8952 86.7623 32.8422 86.9276 32.7358C87.0969 32.6295 87.2307 32.4838 87.3292 32.2988C87.4276 32.1138 87.4768 31.911 87.4768 31.6906C87.4768 31.5057 87.4276 31.3266 87.3292 31.1534C87.2307 30.9802 87.0969 30.8404 86.9276 30.7341C86.7584 30.6279 86.5754 30.5747 86.3785 30.5747H84.8493V32.8952H86.3785Z" fill="black"/>
<path d="M93.8355 28.9097C94.3945 28.9097 94.8944 29.0238 95.3353 29.2521C95.7761 29.4804 96.1186 29.7993 96.3627 30.2087C96.6106 30.618 96.7346 31.0865 96.7346 31.6139C96.7346 32.1532 96.5969 32.6295 96.3213 33.0427C96.0497 33.4523 95.6797 33.7573 95.2113 33.9581L96.9236 36.9397H94.7802L93.375 34.2533H92.1823V36.9397H90.3105V28.9097H93.8355ZM93.7588 32.6885C93.9634 32.6885 94.1504 32.6432 94.3197 32.5527C94.489 32.4582 94.6208 32.3304 94.7153 32.169C94.8137 32.0036 94.8629 31.8186 94.8629 31.6139C94.8629 31.4289 94.8137 31.2577 94.7153 31.1002C94.6169 30.9388 94.4831 30.8109 94.3138 30.7164C94.1445 30.622 93.9595 30.5747 93.7588 30.5747H92.1823V32.6885H93.7588Z" fill="black"/>
<path d="M101.748 37.1225C100.957 37.1225 100.227 36.9354 99.5577 36.5615C98.8885 36.1836 98.3571 35.6718 97.9634 35.0263C97.5738 34.3807 97.3789 33.6762 97.3789 32.9124C97.3789 32.145 97.5738 31.4403 97.9634 30.7987C98.3571 30.1571 98.8885 29.6493 99.5577 29.2753C100.227 28.8974 100.957 28.7085 101.748 28.7085C102.535 28.7085 103.264 28.8974 103.933 29.2753C104.602 29.6493 105.132 30.1571 105.521 30.7987C105.915 31.4403 106.112 32.145 106.112 32.9124C106.112 33.6762 105.915 34.3807 105.521 35.0263C105.132 35.6718 104.602 36.1836 103.933 36.5615C103.264 36.9354 102.535 37.1225 101.748 37.1225ZM101.748 35.4102C102.209 35.4102 102.628 35.3039 103.006 35.0912C103.388 34.8749 103.689 34.5776 103.909 34.1996C104.134 33.818 104.246 33.3908 104.246 32.9184C104.246 32.442 104.134 32.0151 103.909 31.6371C103.689 31.2553 103.388 30.9581 103.006 30.7456C102.628 30.5291 102.209 30.4208 101.748 30.4208C101.288 30.4208 100.866 30.5291 100.485 30.7456C100.103 30.9581 99.8017 31.2553 99.5813 31.6371C99.3608 32.0151 99.2506 32.442 99.2506 32.9184C99.2506 33.3908 99.3608 33.818 99.5813 34.1996C99.8056 34.5776 100.109 34.8749 100.491 35.0912C100.872 35.3039 101.292 35.4102 101.748 35.4102Z" fill="black"/>
<path d="M108.527 30.5747H106.277V28.9097H112.631V30.5747H110.387V36.9397H108.527V30.5747Z" fill="black"/>
<path d="M117.159 37.1225C116.367 37.1225 115.637 36.9354 114.968 36.5615C114.299 36.1836 113.767 35.6718 113.374 35.0263C112.984 34.3807 112.789 33.6762 112.789 32.9124C112.789 32.145 112.984 31.4403 113.374 30.7987C113.767 30.1571 114.299 29.6493 114.968 29.2753C115.637 28.8974 116.367 28.7085 117.159 28.7085C117.946 28.7085 118.674 28.8974 119.343 29.2753C120.012 29.6493 120.542 30.1571 120.931 30.7987C121.325 31.4403 121.522 32.145 121.522 32.9124C121.522 33.6762 121.325 34.3807 120.931 35.0263C120.542 35.6718 120.012 36.1836 119.343 36.5615C118.674 36.9354 117.946 37.1225 117.159 37.1225ZM117.159 35.4102C117.619 35.4102 118.038 35.3039 118.416 35.0912C118.798 34.8749 119.099 34.5776 119.319 34.1996C119.544 33.818 119.656 33.3908 119.656 32.9184C119.656 32.442 119.544 32.0151 119.319 31.6371C119.099 31.2553 118.798 30.9581 118.416 30.7456C118.038 30.5291 117.619 30.4208 117.159 30.4208C116.698 30.4208 116.277 30.5291 115.895 30.7456C115.513 30.9581 115.212 31.2553 114.991 31.6371C114.771 32.0151 114.661 32.442 114.661 32.9184C114.661 33.3908 114.771 33.818 114.991 34.1996C115.216 34.5776 115.519 34.8749 115.901 35.0912C116.283 35.3039 116.702 35.4102 117.159 35.4102Z" fill="black"/>
<path d="M126.435 37.1225C125.656 37.1225 124.937 36.9354 124.28 36.5615C123.623 36.1836 123.101 35.6718 122.715 35.0263C122.333 34.3807 122.143 33.6762 122.143 32.9124C122.143 32.145 122.333 31.4403 122.715 30.7987C123.101 30.1531 123.623 29.6434 124.28 29.2694C124.937 28.8955 125.656 28.7085 126.435 28.7085C127.03 28.7085 127.61 28.8305 128.177 29.0746C128.744 29.3147 129.23 29.6886 129.635 30.1964C130.041 30.7003 130.299 31.3222 130.409 32.0622H128.502C128.368 31.4994 128.114 31.0861 127.74 30.8223C127.366 30.5546 126.913 30.4208 126.382 30.4208C125.945 30.4208 125.545 30.5232 125.183 30.7278C124.825 30.9286 124.54 31.2179 124.327 31.5958C124.119 31.9737 124.014 32.4146 124.014 32.9184C124.014 33.434 124.119 33.8808 124.327 34.2588C124.54 34.6327 124.825 34.9181 125.183 35.115C125.545 35.3116 125.945 35.4102 126.382 35.4102C126.909 35.4102 127.36 35.2782 127.734 35.0146C128.108 34.7468 128.362 34.3336 128.496 33.7745H130.409C130.299 34.5145 130.041 35.1365 129.635 35.6405C129.234 36.1442 128.75 36.5181 128.183 36.7623C127.616 37.0024 127.033 37.1225 126.435 37.1225Z" fill="black"/>
<path d="M135.404 37.1225C134.613 37.1225 133.883 36.9354 133.214 36.5615C132.545 36.1836 132.013 35.6718 131.62 35.0263C131.23 34.3807 131.035 33.6762 131.035 32.9124C131.035 32.145 131.23 31.4403 131.62 30.7987C132.013 30.1571 132.545 29.6493 133.214 29.2753C133.883 28.8974 134.613 28.7085 135.404 28.7085C136.192 28.7085 136.92 28.8974 137.589 29.2753C138.258 29.6493 138.788 30.1571 139.177 30.7987C139.571 31.4403 139.768 32.145 139.768 32.9124C139.768 33.6762 139.571 34.3807 139.177 35.0263C138.788 35.6718 138.258 36.1836 137.589 36.5615C136.92 36.9354 136.192 37.1225 135.404 37.1225ZM135.404 35.4102C135.865 35.4102 136.284 35.3039 136.662 35.0912C137.044 34.8749 137.345 34.5776 137.566 34.1996C137.79 33.818 137.902 33.3908 137.902 32.9184C137.902 32.442 137.79 32.0151 137.566 31.6371C137.345 31.2553 137.044 30.9581 136.662 30.7456C136.284 30.5291 135.865 30.4208 135.404 30.4208C134.944 30.4208 134.523 30.5291 134.141 30.7456C133.759 30.9581 133.458 31.2553 133.237 31.6371C133.017 32.0151 132.907 32.442 132.907 32.9184C132.907 33.3908 133.017 33.818 133.237 34.1996C133.462 34.5776 133.765 34.8749 134.147 35.0912C134.529 35.3039 134.948 35.4102 135.404 35.4102Z" fill="black"/>
<path d="M140.9 28.9097H142.772V35.2748H146.144V36.9397H140.9V28.9097Z" fill="black"/>
</g>
<defs>
<clipPath id="clip0_23_2446">
<rect width="62.7584" height="46" fill="black" transform="translate(0.21875)"/>
</clipPath>
<clipPath id="clip1_23_2446">
<rect width="120.509" height="28.3552" fill="black" transform="translate(82.9775 8.82227)"/>
</clipPath>
</defs>
</svg>
