<svg xmlns="http://www.w3.org/2000/svg" xmlns:xlink="http://www.w3.org/1999/xlink" xmlns:inkscape="http://www.inkscape.org/namespaces/inkscape" version="1.1" width="2675" height="1066" viewBox="0 0 2675 1066">
<defs>
<clipPath id="clip_0">
<path transform="matrix(1,0,0,-1,0,1066)" d="M0 1066H2675V0H0Z"/>
</clipPath>
</defs>
<g inkscape:groupmode="layer" inkscape:label="Layer 1">
<g clip-path="url(#clip_0)">
<path transform="matrix(1,0,0,-1,334.5193,723.29129)" d="M0 0C21.11 1.114 41.664 1.114 62.774 0 61.66 104.438 61.66 209.433 61.66 313.865 124.991 203.875 188.323 104.438 251.647 0 278.873 1.114 306.648 1.114 333.867 0 331.088 129.435 331.088 259.427 334.975 388.862 313.865 387.748 293.312 387.748 272.201 388.862 273.872 284.424 273.872 179.429 273.872 74.997 210.541 184.987 147.209 284.424 83.885 388.862 56.666 387.748 28.89 387.748 1.665 388.862 3.887 259.427 3.887 129.435 0 0M502.738 284.424C459.403 284.424 412.188 262.206 388.856 237.209 384.963 214.427 384.963 191.652 384.963 168.877 423.854 206.654 461.074 221.093 498.845 221.093 538.844 221.093 568.285 211.098 568.285 179.986V177.764C568.285 156.103 555.511 153.324 528.286 153.324H501.067C433.85 153.324 389.413 132.214 389.413 74.44 389.413 18.889 427.741-5.558 482.179-5.558 516.626-5.558 554.397 15.553 567.728 48.886 567.728 32.776 567.728 16.11 566.62 0 586.066 1.114 604.948 1.114 624.394 0 622.729 61.66 622.729 122.77 622.729 184.43 622.729 256.091 571.064 284.424 502.738 284.424M568.285 107.217C568.285 57.216 525.514 44.442 495.516 44.442 464.961 44.442 446.629 55.552 446.629 77.219 446.629 99.438 466.069 104.438 498.289 104.438H522.178C542.18 104.438 558.29 109.989 568.285 126.105ZM783.827 284.424C740.498 284.424 693.276 262.206 669.944 237.209 666.058 214.427 666.058 191.652 666.058 168.877 704.943 206.654 742.163 221.093 779.934 221.093 819.933 221.093 849.373 211.098 849.373 179.986V177.764C849.373 156.103 836.6 153.324 809.381 153.324H782.162C714.944 153.324 670.501 132.214 670.501 74.44 670.501 18.889 708.829-5.558 763.273-5.558 797.714-5.558 835.485 15.553 848.823 48.886 848.823 32.776 848.823 16.11 847.708 0 867.154 1.114 886.043 1.114 905.482 0 903.817 61.66 903.817 122.77 903.817 184.43 903.817 256.091 852.152 284.424 783.827 284.424M849.373 107.217C849.373 57.216 806.602 44.442 776.604 44.442 746.049 44.442 727.718 55.552 727.718 77.219 727.718 99.438 747.164 104.438 779.383 104.438H803.266C823.268 104.438 839.378 109.989 849.373 126.105ZM961.591 0C981.587 1.114 1001.033 1.114 1021.029 0 1019.921 45 1019.921 81.663 1019.921 212.206 1038.253 219.428 1056.028 222.764 1074.359 222.207 1104.357 221.65 1126.024 209.433 1126.575 168.877 1127.132 112.768 1126.575 56.109 1125.467 0 1145.464 1.114 1165.466 1.114 1185.463 0 1183.241 61.66 1183.798 122.77 1183.798 184.43 1183.798 256.091 1141.577 284.424 1085.468 284.424 1063.807 284.424 1041.026 277.202 1020.472 266.093L1021.029 277.759C1001.584 278.316 981.587 278.316 962.142 277.759 963.256 184.987 963.256 92.772 961.591 0M1217.682 277.759C1213.239 260.535 1213.239 243.317 1213.239 226.094H1256.017C1254.902 180.543 1254.902 134.436 1254.902 88.885 1254.902 18.332 1302.124-6.666 1359.34-6.666 1386.008-6.666 1418.779 6.108 1442.111 20.553 1443.225 39.999 1443.225 58.331 1443.225 77.77 1421.558 63.882 1393.225 57.216 1369.893 57.216 1334.9 57.216 1312.119 64.996 1312.119 101.659 1312.119 143.323 1312.119 184.43 1311.011 226.094H1412.67C1417.114 243.317 1417.114 260.535 1417.114 277.759H1311.011C1312.119 305.535 1312.119 332.753 1312.119 360.529 1293.237 361.086 1273.791 361.086 1254.902 360.529 1254.902 332.753 1254.902 305.535 1256.017 277.759ZM1578.763 284.424C1535.434 284.424 1488.212 262.206 1464.88 237.209 1460.993 214.427 1460.993 191.652 1460.993 168.877 1499.878 206.654 1537.099 221.093 1574.876 221.093 1614.868 221.093 1644.315 211.098 1644.315 179.986V177.764C1644.315 156.103 1631.535 153.324 1604.316 153.324H1577.098C1509.88 153.324 1465.437 132.214 1465.437 74.44 1465.437 18.889 1503.765-5.558 1558.209-5.558 1592.65-5.558 1630.428 15.553 1643.758 48.886 1643.758 32.776 1643.758 16.11 1642.645 0 1662.09 1.114 1680.979 1.114 1700.418 0 1698.753 61.66 1698.753 122.77 1698.753 184.43 1698.753 256.091 1647.088 284.424 1578.763 284.424M1644.315 107.217C1644.315 57.216 1601.537 44.442 1571.54 44.442 1540.985 44.442 1522.653 55.552 1522.653 77.219 1522.653 99.438 1542.1 104.438 1574.318 104.438H1598.208C1618.204 104.438 1634.314 109.989 1644.315 126.105ZM1750.969 388.862C1752.083 288.868 1752.083 188.874 1752.083 88.885 1752.083 18.332 1794.304-6.666 1845.412-6.666 1868.738-6.666 1897.071 6.108 1917.073 20.553 1918.181 39.999 1918.181 58.331 1918.181 77.77 1899.85 63.882 1875.96 57.216 1855.964 57.216 1827.631 57.216 1809.3 64.996 1809.3 101.659 1809.3 197.21 1809.3 293.312 1810.413 388.862 1790.411 389.419 1770.972 389.419 1750.969 388.862M1911.516 334.975C1918.181 322.758 1930.955 322.758 1941.514 328.31 1948.179 331.646 1956.509 340.533 1963.731 351.642L1968.175 348.863C1962.624 338.311 1959.845 327.202 1959.845 320.537 1959.845 308.313 1967.067 297.204 1981.506 297.204 1995.951 297.204 2003.174 308.313 2003.174 320.537 2003.174 327.202 1999.844 338.311 1994.844 349.42L1998.73 351.642C2005.952 341.09 2014.283 331.646 2020.948 328.31 2031.507 322.758 2044.28 322.758 2050.952 334.975 2058.726 348.312 2053.174 359.421 2043.173 365.53 2036.507 369.417 2024.284 372.195 2010.396 373.31V377.196C2024.284 378.31 2036.507 381.64 2043.173 385.526 2053.174 391.641 2058.726 403.307 2050.952 415.524 2044.28 428.304 2031.507 428.304 2020.948 422.747 2014.283 419.417 2005.952 410.53 1998.73 399.415L1994.844 401.636C2000.395 412.751 2003.174 423.86 2003.174 430.526 2003.174 442.192 1995.951 453.301 1981.506 453.301 1967.067 453.301 1959.845 442.192 1959.845 430.526 1959.845 423.86 1962.624 413.302 1968.175 402.193L1963.731 399.415C1956.509 410.53 1948.179 419.417 1941.514 422.747 1930.955 428.304 1918.181 428.304 1911.516 415.524 1903.736 403.307 1909.294 391.641 1919.289 385.526 1925.961 381.64 1938.178 378.31 1952.065 377.196V373.31C1938.178 372.195 1925.961 369.417 1919.289 365.53 1909.294 359.421 1903.736 348.312 1911.516 334.975M1952.065 277.759C1952.622 184.987 1952.622 92.772 1951.509 0H2011.51C2010.396 92.772 2010.396 184.987 2010.953 277.759 1991.508 272.201 1971.511 272.201 1952.065 277.759" fill="#1d6052"/>
</g>
</g>
</svg>
