<svg width="332" height="52" viewBox="0 0 332 52" fill="none" xmlns="http://www.w3.org/2000/svg">
<path d="M46.3794 1.59556L26.1964 51.1199H20.183L0 1.59556H5.35679C5.95583 1.59556 6.43967 1.74532 6.80831 2.04484C7.17695 2.34436 7.45343 2.72452 7.63775 3.18532L21.6 38.1254C21.8995 38.9088 22.1875 39.7612 22.464 40.6828C22.7635 41.6044 23.0284 42.5721 23.2588 43.5859C23.4892 42.5721 23.7312 41.6044 23.9846 40.6828C24.238 39.7612 24.5145 38.9088 24.814 38.1254L38.7417 3.18532C38.8799 2.79364 39.1449 2.43652 39.5366 2.11396C39.9513 1.76836 40.4466 1.59556 41.0226 1.59556H46.3794Z" fill="black"/>
<path d="M75.4821 32.7341L67.7061 12.5856C67.4757 11.9866 67.2338 11.2954 66.9804 10.512C66.727 9.70563 66.485 8.85315 66.2546 7.95459C65.7708 9.82083 65.2754 11.376 64.7686 12.6202L56.9926 32.7341H75.4821ZM89.4443 51.1199H84.2604C83.6613 51.1199 83.1775 50.9702 82.8088 50.6707C82.4402 50.3711 82.1637 49.991 81.9794 49.5302L77.3484 37.5725H55.1263L50.4953 49.5302C50.3571 49.9449 50.0921 50.3135 49.7004 50.6361C49.3087 50.9587 48.8249 51.1199 48.2489 51.1199H43.0649L62.8678 1.59556H69.6415L89.4443 51.1199Z" fill="black"/>
<path d="M124.057 45.4867V51.1199H95.9594V1.59556H102.629V45.4867H124.057Z" fill="black"/>
<path d="M162.015 45.6595L161.981 51.1199H131.464V1.59556H161.981V7.05603H138.169V23.5066H157.453V28.7597H138.169V45.6595H162.015Z" fill="black"/>
<path d="M210.505 27.3082V46.3161C208.016 48.1132 205.355 49.4611 202.521 50.3596C199.71 51.2351 196.623 51.6729 193.259 51.6729C189.273 51.6729 185.679 51.0623 182.476 49.8412C179.274 48.5971 176.532 46.8691 174.251 44.6572C171.993 42.4224 170.254 39.7497 169.033 36.6393C167.812 33.5289 167.201 30.1075 167.201 26.375C167.201 22.5965 167.788 19.152 168.964 16.0416C170.162 12.9312 171.855 10.2701 174.044 8.05827C176.233 5.8234 178.894 4.0954 182.027 2.87428C185.161 1.65316 188.663 1.0426 192.533 1.0426C194.492 1.0426 196.312 1.19236 197.994 1.49188C199.676 1.76836 201.231 2.18308 202.659 2.73604C204.088 3.26596 205.413 3.9226 206.634 4.70596C207.855 5.46628 208.995 6.33027 210.055 7.29795L208.154 10.3392C207.855 10.8 207.463 11.0995 206.979 11.2378C206.519 11.353 206 11.2378 205.424 10.8922C204.871 10.5696 204.238 10.1779 203.523 9.71715C202.809 9.25635 201.934 8.81859 200.897 8.40387C199.883 7.96611 198.674 7.59747 197.268 7.29795C195.886 6.99843 194.238 6.84867 192.326 6.84867C189.538 6.84867 187.015 7.30947 184.757 8.23107C182.499 9.12963 180.576 10.4314 178.986 12.1363C177.396 13.8183 176.175 15.8688 175.323 18.288C174.47 20.6842 174.044 23.3798 174.044 26.375C174.044 29.4854 174.482 32.2733 175.357 34.7385C176.256 37.1808 177.523 39.2659 179.159 40.9939C180.818 42.6988 182.822 44.0006 185.172 44.8992C187.522 45.7977 190.16 46.247 193.086 46.247C195.39 46.247 197.429 45.9936 199.203 45.4867C201.001 44.9568 202.752 44.231 204.457 43.3094V32.423H196.75C196.312 32.423 195.955 32.2963 195.678 32.0429C195.425 31.7894 195.298 31.4784 195.298 31.1097V27.3082H210.505Z" fill="black"/>
<path d="M246.662 32.7341L238.886 12.5856C238.655 11.9866 238.413 11.2954 238.16 10.512C237.907 9.70563 237.665 8.85315 237.434 7.95459C236.95 9.82083 236.455 11.376 235.948 12.6202L228.172 32.7341H246.662ZM260.624 51.1199H255.44C254.841 51.1199 254.357 50.9702 253.989 50.6707C253.62 50.3711 253.343 49.991 253.159 49.5302L248.528 37.5725H226.306L221.675 49.5302C221.537 49.9449 221.272 50.3135 220.88 50.6361C220.488 50.9587 220.005 51.1199 219.429 51.1199H214.245L234.047 1.59556H240.821L260.624 51.1199Z" fill="black"/>
<circle cx="324.152" cy="7.55998" r="7.55998" fill="#3080E3"/>
<circle cx="313.712" cy="27.36" r="6.47999" fill="#3080E3"/>
<circle cx="302.192" cy="46.0799" r="5.03999" fill="#3080E3"/>
<circle cx="302.912" cy="6.47999" r="6.47999" fill="#3080E3"/>
<circle cx="281.312" cy="5.76008" r="5.03999" fill="#3080E3"/>
<circle cx="291.392" cy="25.92" r="5.03999" fill="#3080E3"/>
</svg>
