<?xml version="1.0" encoding="UTF-8"?><svg id="Layer_2" xmlns="http://www.w3.org/2000/svg" viewBox="0 0 1000 214.2857"><g id="Components"><g id="_13a9669e-0ed3-4125-a11c-dd77ff54c90d_4"><polygon points="986.9329 35.7037 969.2051 62.5212 951.4772 35.7037 892.8571 35.7037 892.8571 43.1055 911.2096 43.1055 911.2096 71.418 920.4268 71.418 920.4765 43.1055 938.2113 43.1055 938.2113 71.418 947.3302 71.418 947.3302 45.2475 964.5509 71.418 973.6101 71.418 990.8811 45.2424 990.8811 71.418 1000 71.418 1000 35.7037 986.9329 35.7037"/><path d="M250.5941,71.4079h31.0287c.1392,0,.2662.0794.3272.2045l40.9163,83.9541c.061.1251.188.2045.3272.2045h.1244c.1392,0,.2662-.0794.3272-.2045l40.9163-83.9541c.061-.1251.188-.2045.3272-.2045h30.0638c.2718,0,.4477.2871.3242.5292l-54.2571,106.415c-.0621.1219-.1874.1986-.3242.1986h-35.8443c-.1368,0-.2621-.0767-.3242-.1986l-54.2568-106.415c-.1235-.2421.0524-.5292.3242-.5292Z"/><path d="M401.5638,146.8934c-.1933-25.2872,14.6703-33.9736,54.435-33.9736h46.5428c.201,0,.3639-.1629.3639-.3639v-2.1456c0-15.2494-4.0535-19.3032-34.3597-19.3032-28.7616,0-34.5527,2.9828-34.5527,13.5993h0c0,.201-.1629,0-.3639,0h-27.6479c-.201,0-.3639.201-.3639,0h0c0-24.901,13.7055-35.0259,62.5426-35.0259,52.6978,0,62.3494,10.2307,62.3494,42.2742v66.2322c0,.201-.1629.3639-.3639.3639h-26.876c-.201,0-.3639-.1629-.3639-.3639v-12.5914c0-.201-.1629-.3639-.3639-.3639h0c-.1327,0-.2535.0734-.3166.1901-5.6633,10.4798-19.56,14.8664-46.9981,14.8664-39.3788,0-53.4701-9.0726-53.663-33.3945ZM459.8593,158.4755c35.1321,0,43.2394-3.8609,43.2394-20.8475v-4.0757c0-.201-.1629-.3639-.3639-.3639h-42.8755c-24.5149,0-30.3059,2.7024-30.3059,12.547.1929,10.0378,6.3701,12.7402,30.3059,12.7402Z"/><path d="M555.4416,35.6936h26.0806c.201,0,.3639.1629.3639.3639v142.1293c0,.201-.1629.3639-.3639.3639h-26.0806c-.201,0-.3639-.1629-.3639-.3639V36.0575c0-.201.1629-.3639.3639-.3639Z"/><path d="M603.3406,124.8877c0-43.8185,13.5122-55.2073,70.4567-55.2073s70.4567,11.3888,70.4567,55.2073-13.5122,55.4002-70.4567,55.4002-70.4567-11.5817-70.4567-55.4002ZM673.7973,156.7379c38.0274,0,41.888-5.2116,41.888-31.8502s-3.8606-31.6573-41.888-31.6573c-38.2203,0-42.0809,5.0187-42.0809,31.6573s3.8606,31.8502,42.0809,31.8502Z"/><path d="M771.6331,171.9877c-7.3353-5.212-8.9565-14.4708-8.9565-27.0178v-1.7594c0-.201.1629-.3639.3639-.3639h27.8412c.201,0,.3639.1629.3639.3639v.9871c0,5.9839,1.0417,9.645,4.1303,11.3822,4.2467,2.5095,11.5817,3.2815,31.6573,3.2815,22.0057,0,29.5339-1.1581,33.5874-3.2815,3.2815-1.7372,4.0538-4.6326,4.0538-8.3002,0-5.0191-1.3514-7.1424-4.0538-8.8796-3.4744-2.1234-9.2655-2.5092-38.9923-3.2815-27.9896-.772-40.9228-2.1234-48.451-7.5283-6.7563-4.8258-9.6516-12.547-9.6516-25.2872,0-12.547,3.8606-19.6894,10.4236-24.1291,8.4935-5.9839,23.55-8.4935,51.9258-8.4935,27.9896,0,44.5904,1.9305,53.2768,8.1073,7.335,5.0191,9.2655,14.7574,9.2655,26.9186h0c0,.201-.1629,0-.3639,0h-28.2048c0-5.212-.9652-9.5454-4.2467-11.0897-3.4748-1.7372-10.0378-2.7024-29.7268-2.7024-19.3032,0-26.2524.772-29.9201,2.7024-3.2815,1.7372-4.2467,4.4396-4.2467,8.1073s.772,6.1769,4.0538,7.9144c4.4396,2.1234,11.775,2.3163,38.9923,2.8953,27.7967.7723,41.6951,2.7024,49.0301,7.9144,6.5634,4.8258,9.0726,12.547,9.0726,25.6734,0,12.1608-2.8953,20.0752-10.2307,25.4801-8.8793,6.3701-24.901,8.6864-55.5931,8.6864-34.7459,0-46.9071-2.3163-55.4002-8.3002Z"/><path d="M0,1.6104v32.4936c0,.8894.721,1.6104,1.6104,1.6104h139.6364c.8894,0,1.6104.721,1.6104,1.6104v34.1039h34.1039c.8894,0,1.6104.721,1.6104,1.6104v139.6364c0,.8894.721,1.6104,1.6104,1.6104h32.4936c.8894,0,1.6104-.721,1.6104-1.6104V1.6104c0-.8894-.721-1.6104-1.6104-1.6104H1.6104C.721,0,0,.721,0,1.6104Z"/><path d="M35.7143,73.0389v32.4936c0,.8894.721,1.6103,1.6103,1.6103h32.4936c.8894,0,1.6103.721,1.6103,1.6103v34.1039h34.1039c.8894,0,1.6103.721,1.6103,1.6103v32.4936c0,.8894.721,1.6103,1.6103,1.6103h32.4936c.8894,0,1.6103-.721,1.6103-1.6103v-105.5325H37.3246c-.8894,0-1.6103.721-1.6103,1.6103Z"/><path d="M37.3246,178.5714h32.4936c.8894,0,1.6103-.721,1.6103-1.6103v-34.1039h-34.1039c-.8894,0-1.6103.721-1.6103,1.6103v32.4936c0,.8894.721,1.6103,1.6103,1.6103Z"/></g></g></svg>